<svg width="269" height="269" viewBox="0 0 269 269" fill="none" xmlns="http://www.w3.org/2000/svg">
<g clip-path="url(#clip0_1983_1463)">
<path d="M25.9144 63.6504C6.20316 96.3121 -0.892891 131.444 9.35696 168.839C44.1094 295.525 225.635 295.707 259.807 167.253L264.39 169.723C231.111 296.625 51.604 303.907 7.25154 179.769C-3.40553 149.942 -3.76077 97.361 16.0544 71.053C16.9209 69.9088 19.4595 67.3517 20.6379 66.4676C22.1194 65.358 24.84 64.4565 25.9231 63.6504H25.9144Z" fill="#8BC48C"/>
<path d="M268.618 124.258C269.745 140.147 268.41 154.415 264.39 169.723L259.807 167.253C263.61 152.941 264.832 138.37 263.68 123.556L268.61 124.258H268.618Z" fill="#346D4C"/>
<path d="M267.206 111.924C267.882 115.972 268.324 120.167 268.618 124.258L263.688 123.556C263.307 118.65 262.571 113.562 261.574 108.751L267.206 111.924Z" fill="#1C4930"/>
<path d="M267.206 111.924L261.574 108.751C245.866 32.7397 165.973 -12.8117 92.1358 12.1961C89.0599 9.50894 81.9466 12.1614 78.2209 13.609C75.5783 14.6318 73.135 16.5648 70.6483 17.8391C63.0757 21.7051 59.1855 24.2015 52.332 29.4718C48.745 32.2283 44.6988 35.2361 41.415 38.2787C75.6823 3.89195 127.113 -8.45156 173.684 5.85096C220.887 20.3528 259.019 63.061 267.206 111.924Z" fill="#020404"/>
<path d="M54.4466 32.991C49.1267 37.4204 43.6336 42.5086 38.9462 47.6142C35.3765 51.4976 29.2335 61.1799 25.9151 63.6504C24.8321 64.4565 22.1115 65.358 20.6299 66.4675L26.9721 54.4881C31.6249 48.377 35.7664 43.5142 41.4155 38.2786C44.6993 35.236 48.7541 32.2282 52.3325 29.4717L54.4466 32.9996V32.991Z" fill="#285E41"/>
<path d="M70.6483 17.8304C72.8491 21.7311 67.8931 22.3726 65.1898 24.5223C64.9819 24.687 64.8606 25.4151 64.6613 25.5798C61.4382 28.1196 57.5046 30.434 54.4461 32.9824L52.332 29.4545C59.1855 24.1842 63.0757 21.6878 70.6483 17.8218V17.8304Z" fill="#1C4930"/>
<path d="M92.1366 12.1959C82.4585 15.4725 73.3177 20.24 64.6621 25.5883C64.8614 25.4322 64.9827 24.6954 65.1906 24.5307C67.8939 22.381 72.8499 21.7396 70.6491 17.8389C73.1444 16.5647 75.5791 14.6317 78.2217 13.6088C81.9474 12.1699 89.0607 9.51744 92.1366 12.1959Z" fill="#113823"/>
<path d="M261.565 108.751C262.562 113.562 263.298 118.65 263.68 123.556C264.823 138.37 263.61 152.941 259.807 167.253C225.635 295.706 44.1093 295.524 9.35684 168.839C-0.901669 131.444 6.19438 96.3121 25.9143 63.6417C29.2327 61.1712 35.3757 51.4889 38.9454 47.6055C43.6327 42.4999 49.1259 37.4117 54.4458 32.9823C57.5043 30.4338 61.4378 28.1194 64.661 25.5796C73.3166 20.24 82.4574 15.4638 92.1354 12.1873C165.964 -12.8205 245.866 32.7309 261.565 108.742V108.751Z" fill="white"/>
<path d="M229.517 75.2746C225.349 73.1422 215.429 67.7159 210.499 67.1698C210.455 67.1698 210.325 66.5544 209.615 66.8144C208.593 67.4645 206.556 87.7308 207.674 90.4266C208.003 107.919 218.314 124.25 234.447 131.306C229.551 137.191 224.336 142.99 218.418 147.871C215.749 150.072 201.583 158.819 200.985 159.677C200.154 160.856 198.715 167.192 198.516 169.012C198.308 169.073 197.788 170.053 197.104 169.368C198.975 161.228 201.626 153.184 201.687 144.698C201.765 132.389 193.387 107.095 185.84 97.3004C183.319 94.0325 171.986 84.8096 171.397 82.1484C169.595 73.957 175.876 66.147 176.682 58.1809C182.357 2.26238 107.506 19.0613 113.632 60.998C114.316 65.7049 120.052 73.1855 119.974 75.4479C119.905 77.2943 117.99 78.8892 118.562 81.793C118.813 83.0673 120.815 84.3935 121.031 84.9656C122.149 87.9388 119.463 91.198 118.917 94.1279C118.224 97.8379 118.397 102.744 117.505 106.107C116.612 109.471 112.662 114.489 111.163 118.087C109.958 120.982 109.742 124.692 108.693 127.249C108.199 128.454 101.398 140.347 100.766 140.815C98.4175 142.548 83.9655 145.106 79.9799 146.804C73.2478 149.682 71.5062 155.221 72.4073 162.13C72.7106 164.444 76.6528 172.133 76.6355 172.705C76.5922 173.91 63.4485 185.595 61.4903 186.626C60.1647 187.32 58.4578 187.372 57.2622 188.386C49.5769 187.103 42.2643 181.417 34.7177 182.396C34.657 182.396 34.4404 181.815 33.4874 182.041C29.4845 182.986 23.3328 189.383 23.8007 193.673C19.6938 184.728 18.4462 174.43 17.2852 164.774C17.6837 164.722 18.1343 164.852 18.5155 164.774C34.5877 161.61 45.1062 158.429 58.1459 147.862C92.7511 119.803 89.1294 76.5228 80.5171 37.0305C80.0839 36.3284 79.2954 36.9872 78.5763 37.2039C70.6052 39.6223 54.8881 48.8626 46.7004 53.058C40.4448 56.2652 33.9639 59.2644 28.2108 63.2778C54.1863 23.9762 100.003 1.95899 147.267 6.55313C195.683 11.26 239.801 46.3921 255.406 92.1862C248.76 84.5929 238.961 78.4211 229.517 75.2746Z" fill="#020404"/>
<path d="M169.984 182.405C164.534 183.965 147.665 193.934 142.683 197.557C122.59 212.189 114.411 238.54 121.022 262.404C83.4451 263.556 40.6956 229.152 22.7432 197.912L24.1554 197.557C24.3807 197.99 26.2869 201.839 26.9713 200.556C27.1533 200.227 23.9735 195.294 23.8002 193.682C23.3323 189.4 29.484 183.003 33.4869 182.049C34.4399 181.824 34.6566 182.414 34.7172 182.405C29.8046 184.633 26.5035 185.482 31.5461 190.51C31.7887 190.934 31.884 190.839 31.9013 190.865C33.3309 193.101 35.8089 194.965 37.5331 196.855C37.8797 197.227 38.2782 197.566 38.5901 197.912C38.9367 198.294 39.1966 198.51 39.2919 198.614C41.5793 201.163 43.9793 203.911 46.336 206.364C49.3165 209.467 50.9887 212.076 55.4942 213.411C55.5288 213.42 55.3729 214.07 55.6674 214.113C56.17 214.191 63.9332 211.461 64.8256 210.941C68.222 208.956 71.5317 203.859 75.0408 201.423C79.1996 198.536 85.1607 196.837 89.4841 194.02C91.3036 194.41 87.8119 202.48 88.6004 203.885C87.1881 210.672 84.1296 213.342 93.1838 215.517C93.8856 215.803 99.838 217.355 100.401 217.277C111.543 215.734 110.105 206.026 113.614 198.779C116.361 193.093 125.112 190.657 115.902 183.454C113.311 181.425 110.686 181.2 108.156 179.926C107.454 179.57 107.107 179.423 107.272 178.513C108.684 177.88 110.46 178.079 111.855 177.455C115.174 177.663 118.302 179.64 121.542 180.272C130.743 182.084 140.3 183.575 149.545 181.33C158.885 181.33 162.351 172.74 166.804 166.351C167.853 164.852 170.331 163.031 171.388 161.419C175.893 154.493 177.106 144.083 179.315 136.221C179.965 138.058 182.357 140.945 182.66 142.739C183.284 146.397 180.26 170.434 178.432 173.399C177.86 174.326 175.287 175.505 174.203 176.927C172.913 178.626 173.458 181.235 169.975 182.388L169.984 182.405Z" fill="url(#paint0_linear_1983_1463)"/>
<path d="M180.555 200.027C180.659 199.993 180.807 200.062 180.911 200.027C183.934 198.987 185.563 197.826 187.599 195.268C189.376 193.041 190.961 187.77 191.654 186.99C193.197 185.248 218.08 177.759 223.002 175.358C233.269 170.356 244.905 160.682 250.303 150.515C253.101 145.236 253.335 140.459 255.233 135.709C256.922 131.488 261.696 127.509 262.104 122.49C271.409 194.462 209.581 263.149 137.407 263.452C152.587 259.196 171.545 253.302 180.911 239.667C184.723 234.119 192.243 217.242 192.885 210.767C194.973 189.738 184.576 209.484 179.325 213.411C170.808 219.773 162.317 217.121 156.252 209.007C157.924 207.673 169.569 198.224 170.522 198.259C171.233 198.285 171.467 199.238 172.281 199.672C172.818 199.949 173.364 199.169 173.693 199.316C173.927 199.42 174.161 201.882 175.106 202.134C175.417 202.22 180.954 201.57 180.564 200.019L180.555 200.027Z" fill="#54A189"/>
<path d="M190.589 202.498C192.347 202.29 191.957 209.475 191.819 210.776C190.19 226.084 177.635 245.145 164.171 252.539C152.674 258.85 136.896 263.712 123.839 262.932C129.072 242.545 138.594 222.547 155.715 209.892C161.84 218.204 170.808 220.727 179.672 214.477C182.089 212.769 189.783 202.593 190.589 202.498Z" fill="#8BC48C"/>
<path d="M169.985 184.52C169.395 185.647 168.278 188.23 168.226 189.452C168.07 192.711 171.328 191.524 171.752 192.096C171.882 192.269 171.232 195.979 171.05 196.326C170.505 197.331 155.498 207.924 152.907 210.247C137.095 224.437 127.963 241.669 122.79 262.23L121.907 263.114C121.612 262.534 121.829 262.386 121.023 262.412C114.412 238.549 122.6 212.197 142.683 197.565C147.665 193.942 164.535 183.965 169.985 182.413C170.158 182.361 171.761 181.85 171.743 182.587C171.562 183.298 170.08 184.338 169.985 184.529V184.52Z" fill="#B9E4C2"/>
<path d="M197.113 169.368C197.789 170.061 198.317 169.073 198.525 169.012C219.848 162.789 241.318 160.535 252.772 138.708C252.071 149.266 243.086 160.145 234.985 166.551C222.915 176.086 208.073 179.648 193.769 184.52C194.713 179.449 195.961 174.404 197.113 169.368Z" fill="#B9E4C2"/>
<path d="M254.176 135.189C254.124 136.429 253.327 137.642 252.764 138.717C241.31 160.544 219.839 162.797 198.517 169.021C198.707 167.201 200.154 160.864 200.986 159.685C201.592 158.827 215.75 150.081 218.418 147.879C224.336 142.999 229.552 137.2 234.447 131.314C240.495 133.958 247.565 135.458 254.176 135.189Z" fill="#113823"/>
<path d="M18.5157 164.791C18.8623 158.975 19.2522 145.938 22.0421 141.006C23.9222 137.686 46.2241 121.13 50.7469 117.922C59.0386 112.045 67.5296 106.03 76.991 102.242C75.9339 101.461 73.2913 102.692 72.2343 103.126C68.4047 104.695 63.5007 108.231 59.905 110.528C46.692 118.971 34.6746 129.226 22.3887 138.899C24.5114 133.906 25.5425 128.498 27.3186 123.392C28.6096 119.673 32.1273 109.731 34.0075 106.827C38.4003 100.066 67.0184 77.3205 74.6949 72.8217C75.4141 72.397 82.0076 70.0912 78.9231 70.0045C62.8768 78.3867 48.8147 91.493 35.593 103.836C44.5519 82.2527 58.562 62.8186 75.9253 47.2765C73.9498 46.2884 70.6141 50.1717 69.2364 51.5066C62.6949 57.8084 56.8725 66.1385 51.0934 73.1771L49.3346 56.2655C46.1461 60.4695 50.9115 70.9407 50.2183 74.4166C49.9411 75.8036 40.1938 87.1329 39.4746 90.0974C38.279 85.7893 36.4421 81.4292 36.832 76.8784C36.8493 76.653 39.1107 71.5301 37.1873 73.7059C33.2017 78.222 39.3447 87.965 38.9461 91.675C38.8161 92.9232 32.9418 103.178 31.902 105.423C29.7966 109.956 28.2197 114.923 26.0883 119.344C25.3778 119.309 22.2587 107.078 22.0334 105.778C21.6955 103.793 22.0074 100.889 21.6782 99.0863C21.5829 98.5836 21.8688 97.8554 20.9764 98.3842C20.3352 106.524 23.697 113.944 25.5598 121.641L17.8139 145.955C15.6998 141.612 13.6464 137.226 11.4717 132.918C6.58501 123.245 5.32002 126.148 7.24349 113.892C8.90704 103.334 18.8536 73.5498 25.915 65.9652C30.0132 61.5617 42.2732 57.8777 46.7006 53.1016C54.8971 48.9062 70.6054 39.6572 78.5765 37.2474C79.2957 37.0307 80.0841 36.372 80.5173 37.0741C89.1296 76.5664 92.7513 119.847 58.1462 147.906C45.1064 158.481 34.588 161.653 18.5157 164.817V164.791Z" fill="#8BC48C"/>
<path d="M15.3532 163.379C14.2962 161.524 11.4803 159.209 10.068 156.86C8.86365 154.849 8.21383 152.309 6.89686 150.342C6.6196 148.409 5.65786 146.484 5.48458 144.525C5.30263 142.445 5.20732 126.166 6.0131 125.672C6.40299 126.201 6.85353 126.729 7.24343 127.258C8.40444 128.827 17.6492 146.562 17.8139 147.698C18.2557 150.818 15.6564 159.747 15.3445 163.379H15.3532Z" fill="#8BC48C"/>
<path d="M15.3528 163.378C18.9832 169.741 18.9312 187.615 24.1557 197.566L22.7435 197.921C13.9405 182.604 9.38313 167.86 6.89648 150.35C8.21346 152.318 8.85461 154.858 10.0676 156.869C11.4799 159.218 14.2871 161.532 15.3528 163.387V163.378Z" fill="#020404"/>
<path d="M229.517 75.2748C243.509 82.4347 255.111 87.9824 259.46 103.993C262.527 115.279 263.801 120.211 257.701 130.422C257.19 131.28 255.787 133.551 254.886 133.95C255.44 130.63 252.338 125.212 252.771 122.317C253.153 119.769 258.36 114.672 258.403 111.395C255.986 113.328 254.539 118.919 252.771 120.913C252.234 121.511 252.269 121.563 251.714 120.913L243.613 105.059L245.727 106.116C242.556 103.42 248.318 98.9996 247.841 96.5986C247.738 96.0698 247.122 96.0005 246.784 96.5986C246.412 97.2487 244.826 102.866 243.787 102.762C243.327 100.716 234.88 92.7065 234.802 92.0131C234.758 91.5883 239.801 84.3071 238.146 84.4371L233.918 91.4843C230.158 86.7948 222.334 83.1542 226.519 76.3323C225.236 75.6822 224.179 80.6578 224.049 81.2645C223.096 80.7791 215.021 72.5357 214.363 74.0439C224.526 83.1455 235.815 92.7325 243.067 104.175C241.127 102.259 238.961 98.1935 236.725 96.7719C236.621 96.7026 236.535 97.8034 236.023 97.474L213.306 84.9658L237.791 99.2424C243.414 105.449 247.356 113.007 250.475 120.739C242.166 113.649 230.461 103.446 220.185 99.5978C219.397 99.303 217.525 98.3582 216.841 99.069C226.683 103.863 237.886 110.034 245.901 117.567C250.77 122.144 254.496 128.029 254.175 135.189C247.573 135.458 240.494 133.958 234.447 131.315C218.314 124.259 208.003 107.928 207.674 90.4355C207.596 86.058 208.194 79.2015 208.731 74.7547C209 72.4923 209.467 69.2157 210.49 67.1787C215.428 67.7248 225.34 73.1511 229.508 75.2835L229.517 75.2748Z" fill="#B9E4C2"/>
<path d="M210.49 67.1701C209.468 69.2072 209 72.4837 208.731 74.7461C208.194 79.1929 207.596 86.0581 207.674 90.4269C206.557 87.7311 208.584 67.4649 209.615 66.8147C210.325 66.5547 210.447 67.1615 210.499 67.1701H210.49Z" fill="#EAF6EF"/>
<path d="M61.4899 186.635C59.7397 189.114 59.3758 188.75 57.2617 188.394C58.4574 187.372 60.1643 187.328 61.4899 186.635Z" fill="#346D4C"/>
<path d="M88.6181 203.902C87.821 202.489 91.3214 194.428 89.5019 194.038C85.1784 196.855 79.2174 198.554 75.0585 201.44C71.5495 203.876 68.2397 208.973 64.8434 210.958C63.9509 211.478 56.1877 214.208 55.6852 214.13C55.3906 214.078 55.5466 213.437 55.5119 213.428L63.7863 210.958C71.8181 203.07 80.1531 196.707 90.7322 193.162C90.8709 196.863 89.3546 200.391 88.6181 203.911V203.902Z" fill="#020404"/>
<path d="M169.984 184.52C170.079 184.338 171.561 183.298 171.743 182.578C171.76 181.842 170.157 182.353 169.984 182.405C173.467 181.252 172.921 178.634 174.212 176.944C175.295 175.531 177.869 174.352 178.44 173.416C180.269 170.452 183.292 146.415 182.669 142.757C182.365 140.962 179.974 138.076 179.324 136.238C177.115 144.1 175.902 154.511 171.396 161.437C170.348 163.049 167.861 164.869 166.813 166.369C162.36 172.757 158.894 181.339 149.554 181.347C155.168 179.987 165.089 173.581 164.699 167.071C163.72 150.766 126.437 142.731 113.796 144.343C95.5926 146.657 90.3507 161.272 78.2207 172.185C75.0496 166.733 71.5752 157.701 75.5781 151.919C79.7196 145.938 103.772 143.251 110.279 139.055C107.896 139.185 105.418 139.827 103.061 140.468H102.706C104.577 136.533 108.511 131.835 110.105 127.96C111.18 125.351 111.353 121.676 112.575 118.798C114.013 115.4 117.548 110.884 118.562 107.876C119.896 103.923 119.541 99.2683 120.32 95.1856C121.1 91.1029 123.942 88.4418 122.261 84.7925C122.963 84.4457 124.141 88.3118 124.549 88.8492C125.467 90.0627 127.2 90.4095 127.365 90.6088C127.434 90.6955 127.261 92.1951 127.72 92.7239C128.318 93.4173 134.166 99.0343 134.591 99.2423C138.256 101.054 141.574 97.8641 144.45 97.4827C149.415 96.8239 154.57 97.4394 159.951 96.4252C165.661 95.3417 171.665 92.5418 177.21 90.7909C190.38 101.106 193.69 117.524 198.871 132.554L184.254 142.245C181.516 138.44 171.396 114.022 167.697 113.701C165.851 113.536 165.609 115.755 165.756 117.047C166.423 122.855 181.464 132.606 183.37 142.774C184.072 146.527 180.762 171.561 178.614 174.318C178.033 175.063 175.625 175.93 174.914 176.961C173.779 178.617 171.526 190.536 170.157 190.527C167.792 188.949 171.015 186.6 169.984 184.537V184.52Z" fill="white"/>
<path d="M124.722 98.5317C126.247 114.906 121.17 132.346 110.279 144.699C109.75 144.248 109.733 144.3 109.923 143.641C110.175 142.8 115.443 136.438 116.439 134.652C122.556 123.713 123.994 110.849 124.713 98.5317H124.722Z" fill="#020404"/>
<path d="M93.1923 215.534C92.7678 215.361 87.6645 212.501 87.5605 212.188C88.2364 205.297 91.1476 198.891 91.962 191.922L96.7187 189.278C94.7346 191.697 90.8443 193.483 91.962 197.21C94.3014 194.462 102.013 181.044 104.993 180.298C107.722 179.613 118.033 185.378 118.553 188.576C119.099 191.94 114.732 194.471 113.267 197.036C110.815 201.327 111.249 206.251 108.684 210.429C107.168 212.908 105.842 214.269 103.052 213.601C107.558 214.659 100.028 215.586 98.2956 216.245C101.727 217.398 106.951 214.295 109.039 211.14C111.604 207.248 110.911 204.188 112.21 200.564C114.584 193.959 124.297 190.804 115.555 183.826C112.99 181.78 109.065 180.766 106.041 179.596C105.669 179.119 107.047 178.643 107.272 178.539C107.099 179.449 107.445 179.596 108.156 179.951C110.686 181.226 113.311 181.442 115.901 183.479C125.112 190.683 116.361 193.118 113.614 198.805C110.105 206.051 111.543 215.768 100.401 217.303C99.8378 217.381 93.8855 215.82 93.1837 215.543L93.1923 215.534Z" fill="#020404"/>
<path d="M111.864 177.473C110.469 178.097 108.693 177.897 107.281 178.53C107.055 178.634 105.678 179.111 106.05 179.588C109.074 180.758 112.999 181.772 115.564 183.818C124.306 190.796 114.585 193.951 112.219 200.556C110.92 204.179 111.613 207.239 109.048 211.131C106.96 214.295 101.736 217.39 98.3046 216.237C100.029 215.578 107.567 214.65 103.061 213.593C105.86 214.26 107.177 212.899 108.693 210.42C111.258 206.242 110.816 201.319 113.276 197.028C114.741 194.462 119.107 191.931 118.562 188.568C118.016 185.205 107.723 179.596 105.002 180.29C102.022 181.044 94.3017 194.454 91.971 197.201C90.8533 193.474 94.7435 191.688 96.7277 189.27L91.971 191.914C91.1479 198.883 88.2453 205.289 87.5695 212.18C87.6735 212.492 92.7767 215.361 93.2013 215.526C84.1471 213.359 87.2056 210.68 88.6179 203.893C89.3544 200.374 90.8706 196.846 90.732 193.145C80.1529 196.69 71.8178 203.052 63.7861 210.94L55.5117 213.411C51.0062 212.076 49.334 209.458 46.3535 206.364C48.6062 208.175 53.4582 213.203 56.3954 213.055C57.3485 213.012 59.012 211.478 59.5665 211.296C68.2308 208.409 67.503 205.41 74.0099 200.721C79.9709 196.43 87.9767 194.28 94.085 189.799C100.193 185.317 103.98 176.97 111.873 177.464L111.864 177.473Z" fill="#E0E3E3"/>
<path d="M108.164 183.818C111.136 183.237 116.421 185.057 115.737 188.576C115.529 189.651 110.772 193.561 109.75 195.268C107.688 198.727 107.151 203.364 106.224 207.248L100.938 204.431C100.557 206.129 104.655 207.525 104.811 207.958C105.08 208.687 103.711 210.828 103.226 210.958C102.169 211.235 98.8676 208.236 98.8243 207.958C98.7116 207.352 100.618 206.892 100.41 206.017C97.8972 207.083 93.2878 209.891 93.8943 205.133C89.7874 204.838 95.5752 209.38 95.6531 209.718C96.1037 211.66 93.1145 211.148 93.1838 213.593C94.9513 214.798 97.0827 215.899 99.1708 214.65C97.36 217.91 93.4264 214.312 91.5983 213.064C90.6192 212.397 88.6524 213.116 88.2538 210.776C88.1412 210.143 91.3903 199.186 91.7802 198.441C92.612 196.837 106.665 184.104 108.156 183.818H108.164Z" fill="white"/>
<path d="M96.8928 208.487C98.513 207.733 101.32 211.096 99.7087 212.362C97.4386 214.148 95.3419 209.207 96.8928 208.487Z" fill="white"/>
<path d="M94.7786 212.007C95.2205 211.729 98.5302 213.576 98.4782 213.948C98.1923 215.829 93.271 212.943 94.7786 212.007Z" fill="white"/>
<path d="M101.121 211.305C102.724 211.799 102.36 213.42 101.823 214.477L100.064 214.833L101.294 213.948L99.5352 212.891L101.121 211.305Z" fill="white"/>
<path d="M105.349 209.892C106.311 210.377 103.902 215.275 103.408 211.833L105.349 209.892Z" fill="white"/>
<path d="M149.554 181.347C140.309 183.592 130.753 182.102 121.551 180.29C118.311 179.648 115.183 177.681 111.864 177.473C103.963 176.979 99.9164 185.525 94.0766 189.808C88.2369 194.09 79.9539 196.439 74.0015 200.729C67.4946 205.419 68.2224 208.41 59.5581 211.305C59.0036 211.487 57.3401 213.021 56.387 213.064C53.4498 213.203 48.5978 208.184 46.3451 206.372C43.9884 203.919 41.5884 201.163 39.301 198.623L38.5992 197.921C38.2873 197.574 37.8888 197.236 37.5422 196.863L31.9104 190.874C31.9104 190.874 31.7978 190.952 31.5552 190.518C31.2606 189.99 30.0822 187.536 30.1429 187.172C30.2728 186.427 35.3588 182.561 36.3032 182.414C37.3689 182.249 38.4433 182.535 39.4743 182.769C43.6765 183.714 54.6455 189.6 58.1458 189.816C58.9083 189.86 59.2462 189.704 59.9047 189.461C61.8455 187.294 77.1293 174.43 77.3372 173.078C77.4066 172.601 74.5127 167.158 74.1661 166.031C72.7885 161.48 71.9134 155.308 74.8679 151.225C77.5452 147.533 97.5857 141.95 103.044 140.477C105.401 139.844 107.879 139.203 110.262 139.064C103.755 143.259 79.7112 145.947 75.5611 151.928C71.5582 157.701 75.0325 166.742 78.2037 172.194C90.3337 161.281 95.5756 146.675 113.779 144.352C126.412 142.739 163.703 150.783 164.682 167.08C165.072 173.581 155.151 179.987 149.537 181.356L149.554 181.347Z" fill="#020404"/>
<path d="M110.634 146.111C122.669 144.586 153.176 149.752 160.48 160.388C163.642 164.991 164.708 167.461 161.537 172.367C153.505 184.797 134.158 181.963 121.906 179.588C116.37 178.513 109.066 174.777 103.235 176.06C101.701 176.398 94.4493 184.477 91.9627 186.28C83.5236 192.399 71.7402 195.13 65.0167 203.373C64.0637 204.544 61.6897 209.597 61.1438 210.065C60.2081 210.871 55.9799 212.059 54.6283 211.652C52.2976 210.941 35.5928 194.159 35.4282 192.798C35.2549 191.307 38.9806 190.579 39.8297 190.857C40.7567 187.424 33.4441 193.076 33.6694 190.683C35.1076 189.175 36.8838 189.236 38.7726 188.742C37.4123 186.306 32.8896 191.351 31.5553 188.915C29.7358 185.612 38.608 188.343 37.7156 185.569L33.3141 185.742C33.7213 185.335 36.078 183.142 36.312 183.099C38.2181 182.726 53.9178 189.652 57.0976 190.501H60.2687C69.3662 182.258 78.429 173.893 86.8594 164.956C93.9554 157.432 98.4782 147.637 110.634 146.103V146.111Z" fill="white"/>
<path d="M37.5419 196.854C35.8091 194.956 33.3398 193.101 31.9102 190.865L37.5419 196.854Z" fill="white"/>
<path d="M39.3004 198.614C39.2051 198.502 38.9365 198.294 38.5986 197.912L39.3004 198.614Z" fill="white"/>
<path d="M104.647 174.3C111.145 172.896 125.918 180.09 133.533 179.232L149.562 178.001C139.434 181.616 128.318 179.761 118.033 177.828C113.372 176.952 108.936 174.257 103.59 175.358C102.931 174.811 104.482 174.335 104.647 174.3Z" fill="#020404"/>
<path d="M42.2987 190.51C44.9327 190.51 40.5225 192.685 40.0113 193.154C40.0287 194.549 62.0879 201.076 62.911 205.844C59.1421 203.278 55.2172 200.964 51.1103 198.97C49.1695 198.034 38.5038 195.277 38.9543 192.807C39.0409 192.356 42.0215 190.518 42.2987 190.518V190.51Z" fill="#020404"/>
<path d="M200.985 144.698C200.855 157.059 193.205 187.84 185.138 196.681C183.735 198.224 182.452 198.788 180.91 200.027C180.806 200.062 180.667 199.992 180.555 200.027C179.697 200.287 179.402 201.275 177.912 201.085C177.531 201.033 178.12 200.001 177.21 200.027C176.933 200.027 174.005 203.65 174.741 197.912C174.516 197.799 172.644 199.568 171.743 198.085C170.859 196.152 176.613 182.396 178.259 179.934L172.974 197.557C175.789 196.092 182.478 179.241 183.544 179.232C183.856 179.527 184.073 179.631 184.073 180.116C184.073 181.052 177.522 192.148 176.673 194.566C176.439 195.225 174.819 199.94 175.789 200.027L186.005 185.577C186.758 186.288 185.476 188.195 185.121 188.923C184.306 190.587 178.874 198.215 178.779 198.788C178.241 202.194 183.483 196.603 184.064 195.97C187.512 192.2 188.873 187.632 191.81 183.636C192.945 180.385 191.047 180.125 190.753 178.001C189.782 171.075 199.001 148.295 199.556 138.882C199.608 138.075 199.4 134.019 198.672 133.776C195.882 136.715 185.433 140.745 184.402 144.169C183.232 148.061 183.622 156.149 182.989 160.734C182.452 164.6 181.205 168.605 180.174 172.367C180.468 173.199 189.488 173.286 190.034 175.895C187.885 175.487 182.262 173.182 180.347 173.606C180.009 173.684 175.4 178.053 175.244 178.365C173.875 181.018 173.467 196.36 168.2 189.469C168.26 188.247 169.369 185.655 169.958 184.537C170.989 186.6 167.766 188.949 170.132 190.527C171.501 190.527 173.745 178.617 174.888 176.961C175.599 175.929 178.008 175.063 178.588 174.317C180.737 171.569 184.047 146.536 183.345 142.774C181.439 132.606 166.397 122.854 165.73 117.046C165.583 115.755 165.826 113.536 167.671 113.701C171.362 114.021 181.491 138.44 184.228 142.245L198.845 132.554C193.655 117.532 190.345 101.106 177.184 90.7905C171.631 92.5415 165.635 95.35 159.925 96.4248C154.545 97.439 149.389 96.8236 144.425 97.4823C141.548 97.8637 138.23 101.054 134.565 99.242C134.14 99.034 128.292 93.4083 127.694 92.7235C127.243 92.1947 127.408 90.6951 127.339 90.6085C127.166 90.4004 125.441 90.0624 124.523 88.8488C124.116 88.3114 122.937 84.4454 122.236 84.7921C123.925 88.4501 121.049 91.2759 120.295 95.1853C119.541 99.0946 119.87 103.923 118.536 107.876C117.513 110.883 113.987 115.4 112.549 118.797C111.336 121.675 111.154 125.359 110.08 127.96C108.485 131.834 104.552 136.533 102.68 140.468C102.386 140.433 101.736 140.607 101.623 140.295C101.363 139.566 108.442 129.156 109.369 126.902C110.296 124.648 110.426 121.268 111.483 118.797C112.956 115.347 116.89 110.086 117.825 107.165C119.004 103.498 118.804 97.8464 119.584 93.7724C120.078 91.2066 122.981 87.3319 121.698 84.6101C121.508 84.2113 120.035 83.6219 119.584 82.8504C117.756 79.6952 120 78.7157 120.286 76.5053C120.858 72.1799 115.217 66.9876 114.299 61.3533C107.584 20.0927 182.071 2.5483 175.945 58.8829C175.2 65.7134 168.659 75.4911 170.314 82.1396C170.92 84.5754 182.418 94.0757 184.757 96.9449C192.685 106.636 201.089 132.25 200.959 144.698H200.985Z" fill="#020404"/>
<path d="M201.687 144.698H200.985C201.115 132.251 192.711 106.636 184.783 96.945C182.444 94.0845 170.946 84.5755 170.34 82.1398C168.685 75.4913 175.235 65.7049 175.972 58.883C182.106 2.54843 107.619 20.0928 114.325 61.3534C115.244 66.9964 120.884 72.18 120.312 76.5054C120.018 78.7158 117.782 79.6953 119.611 82.8506C120.061 83.6307 121.534 84.2115 121.725 84.6102C123.007 87.332 120.104 91.2067 119.611 93.7725C118.831 97.8465 119.021 103.498 117.852 107.165C116.916 110.077 112.982 115.339 111.509 118.798C110.461 121.268 110.34 124.623 109.395 126.902C108.451 129.182 101.381 139.567 101.649 140.295C101.762 140.607 102.412 140.442 102.707 140.468H103.062C97.6033 141.942 77.5541 147.524 74.8855 151.217C71.931 155.299 72.7974 161.471 74.1837 166.022C74.5303 167.149 77.4241 172.592 77.3548 173.069C77.1469 174.421 61.8631 187.294 59.9223 189.452C59.2638 189.695 58.9259 189.851 58.1634 189.807C54.6631 189.591 43.6941 183.705 39.4919 182.76C38.4609 182.526 37.3952 182.249 36.3208 182.405C35.3677 182.552 30.2905 186.418 30.1605 187.164C30.0912 187.528 31.2695 189.989 31.5728 190.51C26.5215 185.482 29.8312 184.632 34.7439 182.405C42.2905 181.425 49.6031 187.112 57.2884 188.394C59.4024 188.75 59.7663 189.105 61.5165 186.635C63.4747 185.603 76.6184 173.919 76.6617 172.714C76.679 172.142 72.7368 164.462 72.4335 162.139C71.5324 155.23 73.274 149.691 80.0061 146.813C83.983 145.114 98.4437 142.557 100.792 140.823C101.424 140.355 108.226 128.463 108.72 127.258C109.768 124.701 109.976 120.991 111.189 118.095C112.688 114.498 116.656 109.41 117.531 106.116C118.406 102.822 118.25 97.8465 118.943 94.1365C119.489 91.2067 122.175 87.9475 121.057 84.9743C120.841 84.4022 118.848 83.0759 118.588 81.8017C118.008 78.8979 119.931 77.3029 120 75.4566C120.078 73.1942 114.351 65.7135 113.658 61.0067C107.533 19.07 182.383 2.27104 176.708 58.1895C175.902 66.1556 169.621 73.957 171.423 82.1571C172.012 84.8182 183.345 94.0412 185.866 97.3091C193.422 107.104 201.8 132.398 201.713 144.707L201.687 144.698Z" fill="#E0E3E3"/>
<path d="M148.324 23.4736C169.69 22.3987 178.45 44.6153 174.213 62.7665C171.726 73.437 163.642 80.571 175.972 89.8979C167.203 93.8246 157.257 97.0405 147.44 96.2431C151.322 95.0295 154.19 89.3518 156.772 87.6095C159.795 85.5638 162.923 86.0493 165.756 81.7932C173.832 69.675 163.045 57.3749 154.129 72.2755C157.196 74.5552 159.371 71.3827 162.403 72.1021C162.611 72.1542 166.865 75.5781 164.691 72.2755C163.348 70.2385 159.137 71.5127 159.059 71.218C167.117 65.4623 168.243 77.173 162.403 80.2069C161.034 80.9177 158.141 81.1084 156.59 81.7932C155.307 83.5355 163.235 80.935 163.807 80.5623C168.217 77.6585 169.222 65.1156 158.877 69.9871C158.634 70.0998 155.758 73.6537 155.533 71.5734C155.498 71.2613 159.657 67.3086 159.934 67.1699C169.534 62.3071 169.733 79.3661 161.346 84.7924C160.003 85.6592 157.274 86.0146 156.416 86.552C150.75 90.158 149.26 96.6678 139.512 98.5315C132.832 99.8143 133.993 95.1509 128.769 93.0705C129.332 92.091 133.17 94.8822 131.766 92.5417C127.729 92.7931 129.063 90.8688 128.769 90.2533C128.5 89.6726 126.187 89.5512 125.242 88.4937C121.664 84.4543 126.906 85.1911 126.299 81.8018C124.956 82.8594 125 84.5323 122.6 84.0903C117.73 83.2061 121.707 76.6703 121.369 74.0438C121.092 71.9201 116.595 66.6065 115.738 63.1219C110.946 43.7572 129.583 24.4184 148.324 23.4736Z" fill="white"/>
<path d="M127.538 71.3997C128.023 71.313 135.769 73.7748 137.225 73.6881C135.769 75.1357 133.127 76.5746 131.064 76.3319C130.198 76.2279 126.282 72.934 126.308 72.6306C126.308 72.5439 127.451 71.417 127.538 71.3997Z" fill="#020404"/>
<path d="M129.297 73.8701L133.352 75.101C132.39 75.9852 129.15 75.7771 129.297 73.8701Z" fill="#E0E3E3"/>
</g>
<defs>
<linearGradient id="paint0_linear_1983_1463" x1="102.342" y1="160.544" x2="106.158" y2="257.731" gradientUnits="userSpaceOnUse">
<stop stop-color="#0B1B15"/>
<stop offset="1" stop-color="#0F3623"/>
</linearGradient>
<clipPath id="clip0_1983_1463">
<rect width="269" height="269" fill="white"/>
</clipPath>
</defs>
</svg>
