<svg width="246" height="327" viewBox="0 0 246 327" fill="none" xmlns="http://www.w3.org/2000/svg">
<g clip-path="url(#clip0_1935_1780)">
<path d="M144.119 276.148C144.897 277.466 142.896 279.243 142.868 279.423C142.799 280.062 145.8 283.434 140.993 282.851C143.73 285.988 138.728 285.28 138.492 285.655C138.394 285.807 140.867 287.098 138.339 288.306C136.797 289.041 134.143 287.112 132.406 286.751C131.462 286.557 130.225 287.265 128.975 287.056C127.141 286.765 126.571 284.961 125.696 284.558C125.612 283.739 127.127 283.254 127.724 283.004C133.212 280.7 138.7 278.646 144.105 276.148H144.119Z" fill="white"/>
<path d="M18.0617 172.972C17.4226 175.026 16.7001 177.108 16.186 179.204C3.4734 162.688 -6.54389 134.056 5.26567 114.834C14.2687 100.178 37.9295 92.4054 41.778 76.5002C45.2237 62.2744 39.6662 45.1201 53.1708 34.5722C55.7133 32.5875 59.2145 31.7547 60.9651 30.5195C62.2711 29.6035 65.9807 23.7466 67.6757 21.9424C93.879 -5.82924 143.257 -8.89647 168.154 22.2477C185.132 43.4824 171.711 66.9377 145.369 64.3284C154.358 56.0983 165.306 40.3596 162.847 27.5494C161.068 18.3478 143.854 9.92328 135.546 7.75818C106.981 0.332983 76.2342 16.1965 64.5496 42.8301C59.9092 53.4197 59.6452 63.7872 56.4358 74.3074C50.3087 94.4734 29.774 103.966 18.9925 121.065C9.19756 136.596 7.86377 157.234 18.0617 172.958V172.972Z" fill="#04090A"/>
<path d="M60.0203 31.4634C57.0331 38.042 53.532 44.2875 51.434 51.2546C47.2382 65.2168 48.697 79.1789 38.9576 90.8372C32.0386 99.1229 21.5767 105.063 14.3103 113.279C1.79221 127.436 0.388954 141.398 6.04365 159.26C-0.402981 142.827 -2.69542 125.271 9.32254 110.795C18.3534 99.9001 38.0545 91.8781 42.0836 78.374C46.9047 62.219 38.9576 39.6103 60.0203 31.4634Z" fill="white"/>
<path d="M175.476 33.6423C186.243 39.3882 191.912 50.1721 192.787 62.1634C194.163 80.8444 184.187 91.4062 201.054 106.576C210.488 115.056 221.589 120.968 230.536 130.739C250.862 152.903 251.974 183.423 228.813 203.839C231.523 191.528 232.162 180.106 228.66 167.837C221.214 141.8 201.901 129.282 186.535 109.865C167.515 85.813 201.36 70.5324 182.173 48.7703C181.047 47.5073 176.685 44.7454 176.56 44.4123C175.865 42.5664 177.185 36.1544 175.462 33.6562L175.476 33.6423Z" fill="#04090A"/>
<path d="M192.023 64.8142C192.69 75.1123 188.341 85.008 191.55 95.2089C194.788 105.479 209.82 113.585 217.92 120.302C242.234 140.482 255.544 165.394 236.024 195.109C251.696 167.462 237.135 141.981 216.059 123.105C209.793 117.498 190.481 105.535 187.507 99.5669C183.436 91.4061 188.924 82.6347 190.633 74.6266C191.314 71.4067 191.133 67.9786 192.037 64.8142H192.023Z" fill="white"/>
<path d="M148.8 243.102C149.759 245.503 151.343 248.404 151.926 250.888C152.135 251.804 151.94 252.901 152.232 254.011C152.288 254.205 152.232 254.358 152.538 254.316C151.593 255.232 152.635 258.73 152.538 259.618C151.982 264.476 150.023 269.264 148.786 273.955C147.23 274.704 145.674 275.412 144.104 276.134C138.7 278.632 133.198 280.686 127.724 282.99C127.126 283.24 125.612 283.726 125.695 284.545C124.431 283.962 116.053 287.251 113.372 287.348C110.885 287.431 107.328 286.599 105.105 285.474C98.8528 282.338 92.3922 267.932 88.252 261.783C88.2797 261.644 88.5298 261.173 88.5576 261.159C95.5461 256.87 112.427 254.899 120.235 250.555C122.125 249.514 121.041 249.223 122.889 248.057C131.53 247.169 140.214 244.851 148.786 243.074L148.8 243.102Z" fill="#C9EBD1"/>
<path d="M148.801 273.969C150.037 269.278 151.996 264.489 152.552 259.632C159.11 258.702 164.806 256.343 169.405 251.527C169.294 253.817 168.613 262.602 167.529 264.156C166.932 265.017 151.079 272.872 148.801 273.969Z" fill="#2A9A55"/>
<path d="M166.585 241.867C162.583 246.197 157.332 248.765 151.913 250.902C151.344 248.404 149.746 245.517 148.787 243.116C151.121 242.63 163.056 239.438 164.237 239.688C164.584 239.757 166.196 241.534 166.571 241.867H166.585Z" fill="#2A9A55"/>
<path d="M169.71 246.53C169.918 248.279 169.474 249.889 169.404 251.513C164.806 256.329 159.109 258.688 152.551 259.618C152.649 258.73 151.607 255.232 152.551 254.316L169.71 246.53Z" fill="#89C994"/>
<path d="M169.391 245.6L152.232 254.011C151.941 252.901 152.135 251.804 151.927 250.888C157.345 248.751 162.597 246.183 166.598 241.853C168.196 243.255 168.849 243.477 169.405 245.6H169.391Z" fill="#89C994"/>
<path d="M169.71 246.53L152.552 254.316C152.246 254.358 152.288 254.205 152.246 254.011L169.405 245.6C169.502 245.961 169.696 246.364 169.71 246.53Z" fill="#2A9A55"/>
<path d="M122.903 248.099C121.069 249.264 122.139 249.542 120.249 250.597C112.441 254.927 95.5603 256.898 88.5718 261.2C80.5274 248.487 73.3306 235.094 64.5498 222.867C76.5817 218.828 87.8771 212.846 97.9361 205.102C103.271 214.137 108.245 223.366 113.386 232.526C126.724 225.976 140.228 224.879 151.454 235.955C145.16 227.766 134.101 224.768 124.153 227.697C129.252 219.869 135.49 212.444 143.035 206.962C143.757 207.045 150.787 216.552 152.705 217.87C160.652 223.325 169.78 216.607 177.352 213.512L182.187 209.932C174.823 213.665 162.097 222.492 153.941 217.884C146.522 213.693 142.632 203.034 138.186 196.539C135.602 192.764 127.238 187.614 124.139 183.451C123.556 178.621 127.655 183.909 129.447 184.381C128.405 181.827 122.403 180.661 124.292 177.372L130.683 181.896C129.058 179.357 124.834 177.885 124.445 175.04C125.251 172.306 131.267 179.481 132.712 179.87C132.462 178.135 126.265 174.888 126.626 173.486C127.488 170.21 134.601 177.969 135.518 179.245C136.658 177.802 127.474 172.278 131.461 172.389C133.184 172.431 138.269 178.163 139.422 179.717C141.687 182.743 143.243 187.559 145.035 190.002C145.702 190.918 153.441 197.455 154.858 198.579C158.081 201.119 161.805 202.951 164.848 205.754L161.569 202.173C166.487 195.97 174.851 190.279 181.853 197.191C177.963 191.778 172.406 192.847 167.349 195.789C165.82 196.677 160.944 201.729 160.485 201.715C160.263 201.715 157.456 199.37 156.901 199.065C167.21 192.014 193.927 181.105 191.065 203.894C177.866 193.763 182.895 206.129 189.662 211.222C187.064 219.092 184.354 226.947 180.77 234.442C162.958 239.827 144.48 243.505 126.321 247.072C134.198 241.7 143.563 237.787 153.316 238.189C156.095 236.801 145.633 237.8 145.202 237.884C137.102 239.272 129.697 243.866 122.889 248.168L122.903 248.099Z" fill="white"/>
<path d="M57.3672 213.804C59.9236 216.705 62.2855 219.702 64.5502 222.839C73.3309 235.08 80.5417 248.459 88.5722 261.172C88.5444 261.186 88.2943 261.658 88.2665 261.797C86.8494 259.701 85.46 257.189 83.9039 255.246C83.3899 253.733 82.2089 252.526 81.4031 251.194C79.8053 248.529 78.3326 245.753 76.721 243.088C70.7467 233.262 64.3695 222.381 56.7559 213.79H57.3811L57.3672 213.804Z" fill="#04090A"/>
<path d="M48.6416 141.495C64.1468 156.637 80.1662 176.525 91.6978 194.79C89.3498 197.33 86.5711 199.661 83.7368 201.646C78.5406 205.296 63.3966 213.804 57.3668 213.804H56.7416C54.1574 210.889 50.2394 206.837 47.2244 204.449C46.6131 203.964 42.2644 200.494 41.7643 201.174C37.5962 221.298 38.6243 242.186 43.9456 261.964C64.5914 279.728 84.5982 298.215 102.924 318.381L109.482 326.639C84.1119 327.611 58.4227 326.306 33.0391 326.167C34.9286 308.666 25.6616 293.552 21.1878 277.536C13.3658 249.528 9.30882 207.42 16.2 179.19C16.7141 177.094 17.4366 175.012 18.0757 172.958C18.2007 172.584 18.2702 172.084 18.3813 171.709C23.0635 157.275 29.8991 145.409 41.1668 135.236C44.0428 136.846 46.3353 139.205 48.6555 141.467L48.6416 141.495Z" fill="#89C994"/>
<path d="M83.8892 255.26C85.4591 257.189 86.8485 259.701 88.2518 261.811C92.392 267.959 98.8526 282.365 105.105 285.502L112.288 302.018C110.259 298.021 106.258 291.997 103.549 288.306C102.965 287.265 102.52 285.946 101.52 285.183C101.242 286.585 102.993 287.542 103.549 288.306C108.661 297.341 113.385 306.112 116.97 315.897C117.025 316.036 117.79 318.117 117.901 316.674C118.22 317.646 118.554 318.464 118.832 319.478C117.803 319.2 119.026 323.308 119.137 323.836C119.318 324.654 119.61 325.501 119.762 326.334C116.831 326.264 113.663 327.277 110.718 326.334C99.3389 313.121 87.3209 300.325 74.6777 288.306C70.5652 284.392 45.5706 263.476 44.5703 261.339C43.7645 259.66 42.5001 253.234 42.0694 251.055C40.041 240.757 39.3185 229.279 40.3466 218.786C47.877 224.435 55.5879 229.903 62.8126 235.927C68.9119 241.006 79.0681 249.32 83.8753 255.246L83.8892 255.26Z" fill="#89C994"/>
<path d="M56.7551 213.804C64.3688 222.409 70.7599 233.276 76.7202 243.102C76.0672 243.172 75.4698 242.172 75.1641 241.7C65.8554 227.419 57.1025 211.819 42.5559 202.271L40.2218 217.704L81.4163 251.208C82.2221 252.54 83.3892 253.733 83.9171 255.26C79.1099 249.32 68.9537 241.02 62.8544 235.941C55.6298 229.917 47.9049 224.435 40.3885 218.8C39.3604 229.279 40.0828 240.757 42.1113 251.069C42.542 253.248 43.8063 259.674 44.6121 261.353C45.6264 263.476 70.607 284.406 74.7196 288.32C87.3627 300.339 99.3807 313.135 110.76 326.348C110.551 326.556 109.773 326.653 109.509 326.653L102.951 318.395C84.6257 298.215 64.6189 279.742 43.973 261.978C38.6518 242.2 37.6237 221.326 41.7917 201.188C42.2919 200.508 46.6406 203.978 47.2519 204.464C50.2668 206.851 54.1848 210.903 56.769 213.818L56.7551 213.804Z" fill="white"/>
<path d="M61.1182 148.656C72.8305 163.326 89.2111 174.624 106.675 181.383C110.691 184.825 120.069 200.064 120.722 205.227C121.805 213.818 116.623 221.354 111.677 227.821C106.022 218.217 100.979 208.183 95.1436 198.676C83.9454 180.453 71.5801 165.616 57.3808 149.739C54.6994 146.741 51.879 143.577 48.6418 141.162C48.0721 138.733 44.1541 136.263 41.7783 134.611C42.8342 133.695 43.779 132.682 44.9044 131.807C46.0298 130.933 47.2802 130.211 48.1833 129.004C52.1429 135.416 55.3801 143.396 61.1321 148.643L61.1182 148.656Z" fill="#92E3A9"/>
<path d="M97.9365 205.074C87.8775 212.818 76.582 218.8 64.5502 222.839C62.2994 219.702 59.9375 216.691 57.3672 213.804C63.3831 213.804 78.5271 205.296 83.7372 201.646C86.5576 199.661 89.3502 197.33 91.6983 194.79C93.8518 198.204 95.8802 201.59 97.9365 205.074Z" fill="#2A9A55"/>
<path d="M112.288 302.018C114.566 306.501 116.331 311.872 117.901 316.674C117.776 318.117 117.012 316.036 116.97 315.897C113.385 306.112 108.676 297.341 103.549 288.306C106.244 291.997 110.259 298.021 112.288 302.018Z" fill="#E7F5EA"/>
<path d="M50.198 130.267C52.0875 136.624 56.8669 143.341 61.1183 148.656C55.3664 143.41 52.1292 135.43 48.1695 129.018C47.2664 130.225 46.0299 130.947 44.8906 131.821C45.891 130.1 47.9472 129.004 49.2532 127.769C49.3783 128.671 49.809 129.462 50.1841 130.267H50.198Z" fill="#C9EBD1"/>
<path d="M48.642 141.176V141.481C46.3217 139.219 44.0293 136.846 41.1533 135.25C41.3617 135.069 41.5284 134.833 41.7785 134.625C44.1543 136.277 48.0723 138.747 48.642 141.176Z" fill="#E7F5EA"/>
<path d="M103.549 288.306C102.994 287.542 101.243 286.599 101.521 285.183C102.521 285.946 102.966 287.265 103.549 288.306Z" fill="#E7F5EA"/>
<path d="M76.7204 243.102C78.332 245.767 79.8048 248.543 81.4025 251.207L40.208 217.704L42.5421 202.271C57.0887 211.819 65.8417 227.419 75.1504 241.7C75.4561 242.172 76.0535 243.185 76.7065 243.102H76.7204Z" fill="#92E3A9"/>
<path d="M119.777 326.334C119.624 325.501 119.332 324.654 119.152 323.836C120.763 323.419 119.096 320.38 118.846 319.478C118.568 318.465 118.221 317.632 117.915 316.674C116.345 311.886 114.567 306.501 112.302 302.018L105.119 285.502C107.342 286.613 110.913 287.459 113.386 287.376C116.067 287.279 124.445 283.989 125.709 284.572C126.571 284.975 127.154 286.765 128.988 287.07C130.239 287.265 131.475 286.557 132.42 286.765C134.157 287.126 136.796 289.055 138.352 288.32C140.881 287.112 138.408 285.821 138.505 285.669C138.741 285.294 143.743 286.002 141.006 282.865C145.813 283.448 142.798 280.076 142.882 279.437C142.91 279.257 144.91 277.494 144.132 276.162C145.702 275.44 147.258 274.732 148.814 273.983C151.093 272.886 166.932 265.031 167.543 264.17C168.627 262.616 169.307 253.831 169.419 251.541C169.488 249.917 169.947 248.307 169.724 246.558C169.71 246.392 169.502 245.989 169.419 245.628C168.863 243.505 168.21 243.283 166.612 241.881C166.223 241.548 164.625 239.771 164.278 239.702C163.111 239.452 151.176 242.644 148.828 243.13C140.256 244.906 131.572 247.224 122.931 248.113C129.738 243.81 137.144 239.216 145.244 237.828C145.674 237.759 156.136 236.746 153.358 238.134C143.604 237.731 134.24 241.659 126.362 247.016C144.521 243.463 163 239.771 180.811 234.386C184.396 226.892 187.105 219.036 189.703 211.167C182.937 206.073 177.908 193.707 191.106 203.839C193.969 181.05 167.251 191.959 156.942 199.009C157.498 199.314 160.304 201.646 160.527 201.66C160.985 201.674 165.876 196.622 167.39 195.734C172.461 192.791 178.005 191.723 181.895 197.135C174.893 190.238 166.529 195.914 161.61 202.118L164.889 205.699C161.86 202.909 158.123 201.063 154.9 198.523C153.483 197.399 145.744 190.876 145.077 189.946C143.285 187.504 141.729 182.688 139.464 179.662C138.311 178.121 133.226 172.389 131.503 172.334C127.515 172.223 136.699 177.747 135.56 179.19C134.643 177.913 127.529 170.155 126.668 173.43C126.293 174.832 132.503 178.08 132.753 179.815C131.308 179.426 125.292 172.251 124.487 174.985C124.876 177.844 129.099 179.301 130.725 181.841L124.334 177.316C122.43 180.606 128.446 181.772 129.488 184.325C127.696 183.853 123.597 178.566 124.181 183.395C127.265 187.559 135.643 192.708 138.227 196.483C142.673 202.978 146.577 213.651 153.983 217.829C162.138 222.437 174.851 213.61 182.228 209.876L177.393 213.457C169.821 216.552 160.679 223.283 152.746 217.815C150.829 216.496 143.799 206.989 143.076 206.906C135.532 212.388 129.294 219.8 124.195 227.641C134.143 224.713 145.202 227.711 151.496 235.899C140.27 224.824 126.765 225.92 113.427 232.471C108.301 223.311 103.327 214.082 97.9777 205.046C95.9214 201.563 93.8929 198.176 91.7394 194.762C80.2078 176.484 64.1884 156.609 48.6832 141.467V141.162C51.9204 143.577 54.7408 146.741 57.4223 149.739C71.6076 165.617 83.9868 180.453 95.1851 198.676C101.02 208.183 106.064 218.204 111.718 227.822C117.067 222.506 122.611 213.665 121.708 205.851C121.083 200.411 114.011 190.057 110.788 185.283C101.076 170.918 88.9746 158.136 80.5134 142.897C85.0705 133.279 90.7252 123.98 98.2972 116.402C93.754 109.254 92.4202 101.593 94.546 93.3354C88.5439 94.4873 82.4724 96.1944 76.2898 95.0564C68.162 106.493 59.5202 118.109 49.2945 127.783C47.9885 129.018 45.9323 130.114 44.9319 131.835C43.8204 132.71 42.8618 133.723 41.8059 134.639C41.5558 134.847 41.389 135.083 41.1806 135.263C29.9268 145.423 23.0912 157.303 18.3951 171.737C8.82246 156.026 10.2813 136.651 19.9512 121.398C31.0661 103.897 51.0451 95.445 57.3945 74.3352C59.5202 67.2709 60.0065 59.6236 62.0766 52.5176C72.1634 17.8343 109.551 -3.46972 143.965 11.8248C166.223 21.7204 166.82 35.4883 153.177 54.3774C143.118 68.284 132.156 74.7377 114.636 73.8633C105.647 73.4192 58.5199 61.2058 65.1749 82.7458C66.3558 86.5486 74.1501 95.445 78.5961 94.2791C74.8031 92.2251 68.7733 90.6706 72.0383 85.5493C78.9156 74.7516 89.0719 86.9511 97.7831 88.2002C102.382 88.8525 107.161 88.1308 111.357 86.1739C104.258 87.8393 98.714 88.1308 91.8506 85.3967C89.1969 84.3419 85.8902 81.4828 83.4311 80.7195C76.5815 78.5821 72.7608 82.2323 69.7042 87.8949C61.6598 79.3455 66.4114 71.8925 77.1928 70.7545C96.6439 68.6865 117.359 80.7473 136.477 71.0598C138.075 70.2548 143.813 65.5638 144.271 65.4527C146.925 64.7588 152.982 65.5776 156.748 64.8282C166.529 62.8851 174.559 55.3767 176.407 45.5088C181.325 47.8821 185.396 54.1415 186.549 59.3738C191.065 79.97 168.446 88.339 185.618 110.184C201.93 130.947 222.978 144.188 228.994 172.834C231.301 183.798 230.134 193.902 227.438 204.63C228.897 204.575 230.356 203.714 231.023 202.298C239.734 232.749 245.027 267.21 222.756 293.469C198.762 321.754 154.719 327.194 119.791 326.348L119.777 326.334Z" fill="#04090A"/>
<path d="M227.272 205.393C227.967 205.324 227.772 206.379 227.745 206.795C226.939 216.358 231.551 230.209 231.176 242.02C229.342 299.09 175.213 322.67 125.238 325.709C124.737 325.418 124.696 324.988 125.238 324.779C127.697 323.794 137.103 323.738 140.521 323.225C198.387 314.523 237.887 282.796 228.675 219.897C227.981 215.122 224.73 209.654 227.272 205.407V205.393Z" fill="white"/>
<path d="M225.41 211.32C227.064 211.014 227.494 227.28 227.439 228.613C226.022 259.771 202.319 287.903 177.047 303.892C161.152 313.954 141.826 322.156 123.07 324.46C122.709 323.766 122.778 323.78 123.376 323.53C124.807 322.934 130.017 322.767 132.115 322.281C178.408 311.719 231.093 269.861 226.188 217.704C226.105 216.76 224.382 211.5 225.41 211.32Z" fill="white"/>
<path d="M118.846 319.478C119.096 320.38 120.763 323.433 119.152 323.836C119.027 323.294 117.804 319.2 118.846 319.478Z" fill="#5E7464"/>
<path d="M193.26 197.288C206.584 194.693 218.908 212.61 217.129 225.185C214.906 240.854 181.339 256.232 168.919 263.685C168.668 259.382 170.252 255.052 170.322 250.75C170.419 244.907 169.947 243.186 165.334 239.522C169.516 237.953 174.045 237.273 178.283 235.941C181.409 234.955 203.43 227.072 204.028 225.504C204.055 225.421 203.333 225.088 203.402 224.574C203.514 223.825 204.597 224.407 204.653 224.269C204.792 223.908 199.762 219.744 199.04 218.967C196.372 216.163 184.354 205.269 183.757 203.076C183.507 202.16 182.951 200.661 184.229 200.425C185.257 200.23 197.109 209.418 200.457 207.906C199.137 204.13 196.261 201.049 192.19 204.006L191.565 198.079C191.662 197.788 192.982 197.358 193.288 197.302L193.26 197.288Z" fill="white"/>
<path d="M161.749 192.306L166.584 192.458L161.749 194.79V192.306Z" fill="white"/>
<path d="M175.476 131.822C197.803 129.282 219.394 151.932 206.834 173.75C202.277 181.661 194.344 184.922 190.134 192.611C187.758 190.252 185.007 189.655 181.715 189.488C174.129 189.127 168.224 192.597 159.874 191.667C152.885 190.89 154.622 189.835 153.163 184.658C153.024 184.145 150.968 183.312 152.232 181.855C152.733 181.272 153.566 182.452 153.483 181.549C153.455 181.258 150.815 179.273 150.676 178.427C150.537 177.58 151.524 176.303 150.982 174.679C150.398 172.917 147.064 172.112 147.55 170.002C147.689 169.419 151.468 167.213 152.232 165.95C154.733 161.828 152.232 155.763 152.858 150.988C154.164 141.12 166.098 132.89 175.476 131.822Z" fill="white"/>
<path d="M191.398 167.99C196.177 167.49 199.442 171.668 198.109 176.248C196.775 180.828 185.243 187.726 183.284 180.772C187.341 187.42 199.915 178.371 197.483 171.89C195.288 166.033 188.105 170.03 184.687 171.89C186.299 170.655 189.411 168.198 191.398 167.99Z" fill="#04090A"/>
<path d="M158.317 163.937C161.819 167.171 166.89 167.102 171.266 165.964C167.751 168.948 158.734 169.822 158.317 163.937Z" fill="#04090A"/>
<path d="M190.773 171.418C192.385 171.126 193.997 171.446 194.983 172.82C195.581 176.386 192.482 177.858 189.829 179.204C190.482 177.663 193.955 176.733 194.358 174.999C195.483 170.099 188.231 172.375 187.8 174.069C187.369 175.762 190.621 177.844 186.397 179.523C185.174 178.593 187.856 178.524 188.12 177.497C188.398 176.4 185.341 172.403 190.773 171.418Z" fill="#04090A"/>
<path d="M159.874 154.277C162.736 153.722 165.779 155.36 167.21 157.858C164.417 156.096 162.111 154.708 158.624 155.207C158.304 154.777 159.763 154.291 159.874 154.277Z" fill="#04090A"/>
<path d="M172.364 61.6916C173.476 67.2154 170.461 74.2381 167.529 78.9847C161.624 88.5195 150.787 91.3508 149.426 103.606C149.106 106.493 150.468 115.07 150.051 116.388C149.051 119.511 143.049 115.889 140.84 116.541C137.519 117.526 140.187 127.019 131.475 119.969C131.003 120.191 133.837 124.008 131.948 126.672C130.28 129.032 128.363 126.173 125.557 128.699C120.458 133.279 122.986 140.26 113.08 133.057C102.632 125.465 89.9891 106.257 95.4492 93.0023C107.078 88.8664 118.568 84.3003 129.614 78.8181C131.017 78.1242 137.074 73.9328 137.727 73.8356C138.825 73.6552 141.59 74.5018 142.715 74.4602C154.358 74.0854 165.056 71.3791 172.364 61.6777V61.6916Z" fill="white"/>
<path d="M131.476 86.6318C133.199 88.7275 134.838 90.962 137.089 92.5581C140.354 94.862 142.869 93.5435 142.702 98.7897C136.019 98.3734 131.656 93.1549 131.462 86.6318H131.476Z" fill="#04090A"/>
<path d="M135.852 79.1511C141.548 79.3871 149.745 79.6508 150.676 86.7845C149.051 83.8144 146.355 81.2885 143.035 80.4002C140.826 79.8034 138.436 80.1365 136.477 79.7757C136.032 79.6924 135.379 79.9422 135.852 79.1511Z" fill="#04090A"/>
<path d="M111.663 227.835C116.609 221.368 121.805 213.832 120.708 205.24C120.055 200.078 110.69 184.825 106.661 181.397C102.632 177.968 92.4759 174.138 87.1547 170.793C71.6355 161.036 57.9781 146.935 50.1838 130.267C49.8087 129.462 49.3641 128.671 49.2529 127.769C59.4786 118.095 68.1065 106.478 76.2482 95.0423C82.4169 96.1803 88.5023 94.4871 94.5044 93.3213C92.3786 101.579 93.7124 109.24 98.2556 116.388C90.6697 123.966 85.015 133.265 80.4718 142.883C88.9191 158.136 101.034 170.904 110.746 185.269C113.969 190.043 121.041 200.411 121.666 205.837C122.569 213.665 117.026 222.506 111.677 227.808L111.663 227.835Z" fill="white"/>
<path d="M106.675 181.383C89.2105 174.61 72.8299 163.326 61.1176 148.656C56.8662 143.341 52.0868 136.623 50.1973 130.267C57.9916 146.935 71.649 161.036 87.1681 170.793C92.4755 174.124 102.84 178.121 106.675 181.397V181.383Z" fill="#04090A"/>
</g>
<defs>
<clipPath id="clip0_1935_1780">
<rect width="246" height="327" fill="white"/>
</clipPath>
</defs>
</svg>
